<svg width="283" height="60" viewBox="0 0 283 60" fill="none" xmlns="http://www.w3.org/2000/svg">
<g clip-path="url(#clip0_641_1217)">
<path d="M74.8772 59.9016L51.1813 17.5801L36.3457 44.0758L45.2061 59.9016H74.8772Z" fill="white"/>
<path d="M42.0846 59.9018L34.786 46.8604L27.4844 59.9018H42.0846Z" fill="white"/>
<path d="M34.0387 0L0.730469 59.9016H24.0383L45.6926 20.8169L34.0387 0Z" fill="white"/>
</g>
<path d="M103.068 53.4521H92.5227L108.591 6.90669H121.273L137.318 53.4521H126.773L115.114 17.5431H114.75L103.068 53.4521ZM102.409 35.1567H127.318V42.8385H102.409V35.1567ZM181.801 23.2021H171.847C171.665 21.9143 171.294 20.7703 170.733 19.7703C170.172 18.7552 169.453 17.8915 168.574 17.1794C167.695 16.4673 166.68 15.9218 165.528 15.5431C164.392 15.1643 163.157 14.9749 161.824 14.9749C159.415 14.9749 157.316 15.5734 155.528 16.7703C153.741 17.9521 152.354 19.6794 151.369 21.9521C150.384 24.2097 149.892 26.9521 149.892 30.1794C149.892 33.4976 150.384 36.2855 151.369 38.5431C152.369 40.8006 153.763 42.5052 155.551 43.6567C157.339 44.8082 159.407 45.384 161.756 45.384C163.074 45.384 164.294 45.2097 165.415 44.8612C166.551 44.5128 167.559 44.0052 168.438 43.3385C169.316 42.6567 170.044 41.8309 170.619 40.8612C171.21 39.8915 171.619 38.7855 171.847 37.5431L181.801 37.5885C181.544 39.7249 180.9 41.7855 179.869 43.7703C178.854 45.74 177.483 47.5052 175.756 49.0658C174.044 50.6112 171.998 51.8385 169.619 52.7476C167.256 53.6415 164.581 54.0885 161.597 54.0885C157.445 54.0885 153.733 53.1491 150.46 51.2703C147.203 49.3915 144.627 46.6718 142.733 43.1112C140.854 39.5506 139.915 35.24 139.915 30.1794C139.915 25.1037 140.869 20.7855 142.778 17.2249C144.688 13.6643 147.278 10.9521 150.551 9.08851C153.824 7.20972 157.506 6.27033 161.597 6.27033C164.294 6.27033 166.794 6.64912 169.097 7.40669C171.415 8.16427 173.468 9.27033 175.256 10.7249C177.044 12.1643 178.498 13.9294 179.619 16.0203C180.756 18.1112 181.483 20.5052 181.801 23.2021ZM188.858 6.90669H200.994L213.812 38.1794H214.358L227.176 6.90669H239.312V53.4521H229.767V23.1567H229.381L217.335 53.2249H210.835L198.79 23.0431H198.403V53.4521H188.858V6.90669ZM247.42 53.4521V6.90669H278.784V15.0203H257.261V26.1112H277.17V34.2249H257.261V45.3385H278.875V53.4521H247.42Z" fill="white"/>
<defs>
<clipPath id="clip0_641_1217">
<rect width="74.2695" height="59.9046" fill="white" transform="translate(0.730469)"/>
</clipPath>
</defs>
</svg>
