<svg width="242" height="219" viewBox="0 0 242 219" fill="none" xmlns="http://www.w3.org/2000/svg">
<g clip-path="url(#clip0_104_16)">
<g filter="url(#filter0_f_104_16)">
<circle cx="76.6203" cy="76.6203" r="76.6203" fill="#FFC701" fill-opacity="0.5"/>
</g>
<circle cx="76.6203" cy="79.1324" r="73.1083" fill="url(#paint0_linear_104_16)" stroke="url(#paint1_linear_104_16)" stroke-width="2"/>
<mask id="mask0_104_16" style="mask-type:alpha" maskUnits="userSpaceOnUse" x="2" y="46" width="149" height="108">
<path d="M150.729 79.1325C150.729 120.061 117.549 153.241 76.6203 153.241C35.6914 153.241 2.51202 120.061 2.51202 79.1325C2.51202 38.2037 30.0391 47.7308 70.968 47.7308C111.897 47.7308 150.729 38.2037 150.729 79.1325Z" fill="url(#paint2_linear_104_16)"/>
</mask>
<g mask="url(#mask0_104_16)">
<g filter="url(#filter1_f_104_16)">
<path fill-rule="evenodd" clip-rule="evenodd" d="M189.667 214.788C189.667 244.618 165.486 268.799 135.656 268.799C135.446 268.799 135.237 268.798 135.028 268.796V268.799H-54.6389L-54.6365 268.796C-54.8464 268.799 -55.0567 268.8 -55.2672 268.8C-85.0967 268.8 -109.278 244.618 -109.278 214.789C-109.278 184.959 -85.0967 160.778 -55.2672 160.778C-29.5551 160.778 -8.0393 178.744 -2.5895 202.808L15.7012 179.618L72.8525 160.777H135.028V160.781C135.237 160.778 135.446 160.777 135.656 160.777C165.486 160.777 189.667 184.959 189.667 214.788Z" fill="#E18700"/>
</g>
</g>
<g filter="url(#filter2_bd_104_16)">
<mask id="path-5-inside-1_104_16" fill="white">
<path fill-rule="evenodd" clip-rule="evenodd" d="M201.678 218.997C201.829 218.999 201.981 219 202.133 219C223.69 219 241.166 201.524 241.166 179.967C241.166 158.409 223.69 140.933 202.133 140.933C201.981 140.933 201.829 140.934 201.678 140.936V140.933H191.595C191.959 138.262 192.147 135.535 192.147 132.763C192.147 99.6751 165.324 72.8518 132.236 72.8518C99.1474 72.8518 72.3241 99.6751 72.3241 132.763C72.3241 135.886 72.563 138.952 73.0234 141.945C70.1741 141.283 67.2052 140.933 64.1546 140.933C42.5971 140.933 25.1213 158.409 25.1213 179.967C25.1213 201.524 42.5971 219 64.1546 219C64.3065 219 64.4582 218.999 64.6097 218.997L64.6077 219H201.678V218.997Z"/>
</mask>
<path fill-rule="evenodd" clip-rule="evenodd" d="M201.678 218.997C201.829 218.999 201.981 219 202.133 219C223.69 219 241.166 201.524 241.166 179.967C241.166 158.409 223.69 140.933 202.133 140.933C201.981 140.933 201.829 140.934 201.678 140.936V140.933H191.595C191.959 138.262 192.147 135.535 192.147 132.763C192.147 99.6751 165.324 72.8518 132.236 72.8518C99.1474 72.8518 72.3241 99.6751 72.3241 132.763C72.3241 135.886 72.563 138.952 73.0234 141.945C70.1741 141.283 67.2052 140.933 64.1546 140.933C42.5971 140.933 25.1213 158.409 25.1213 179.967C25.1213 201.524 42.5971 219 64.1546 219C64.3065 219 64.4582 218.999 64.6097 218.997L64.6077 219H201.678V218.997Z" fill="url(#paint3_linear_104_16)" shape-rendering="crispEdges"/>
<path d="M201.678 218.997L201.7 216.998C201.166 216.991 200.652 217.199 200.272 217.575C199.892 217.951 199.678 218.463 199.678 218.997H201.678ZM201.678 140.936H199.678C199.678 141.47 199.892 141.983 200.272 142.358C200.652 142.734 201.166 142.942 201.701 142.936L201.678 140.936ZM201.678 140.933H203.678C203.678 139.829 202.782 138.933 201.678 138.933V140.933ZM191.595 140.933L189.613 140.663C189.535 141.236 189.708 141.814 190.088 142.249C190.468 142.684 191.017 142.933 191.595 142.933V140.933ZM73.0234 141.945L72.5707 143.894C73.2173 144.044 73.8963 143.863 74.3831 143.412C74.8698 142.961 75.101 142.297 75.0001 141.641L73.0234 141.945ZM64.6097 218.997L66.1793 220.237C66.6569 219.632 66.7446 218.807 66.4046 218.115C66.0647 217.423 65.3576 216.989 64.587 216.998L64.6097 218.997ZM64.6077 219L63.0381 217.76C62.563 218.362 62.4736 219.182 62.8078 219.872C63.1421 220.562 63.8412 221 64.6077 221V219ZM201.678 219V221C202.782 221 203.678 220.105 203.678 219H201.678ZM201.655 220.997C201.814 220.999 201.973 221 202.133 221V217C201.988 217 201.844 216.999 201.7 216.998L201.655 220.997ZM202.133 221C224.795 221 243.166 202.629 243.166 179.967H239.166C239.166 200.42 222.586 217 202.133 217V221ZM243.166 179.967C243.166 157.305 224.795 138.933 202.133 138.933V142.933C222.586 142.933 239.166 159.514 239.166 179.967H243.166ZM202.133 138.933C201.973 138.933 201.814 138.934 201.655 138.936L201.701 142.936C201.844 142.934 201.988 142.933 202.133 142.933V138.933ZM199.678 140.933V140.936H203.678V140.933H199.678ZM191.595 142.933H201.678V138.933H191.595V142.933ZM193.576 141.204C193.953 138.443 194.147 135.625 194.147 132.763H190.147C190.147 135.444 189.965 138.081 189.613 140.663L193.576 141.204ZM194.147 132.763C194.147 98.5705 166.428 70.8518 132.236 70.8518V74.8518C164.219 74.8518 190.147 100.78 190.147 132.763H194.147ZM132.236 70.8518C98.0428 70.8518 70.3241 98.5705 70.3241 132.763H74.3241C74.3241 100.78 100.252 74.8518 132.236 74.8518V70.8518ZM70.3241 132.763C70.3241 135.988 70.5708 139.156 71.0466 142.249L75.0001 141.641C74.5551 138.748 74.3241 135.783 74.3241 132.763H70.3241ZM73.476 139.997C70.4794 139.301 67.3587 138.933 64.1546 138.933V142.933C67.0518 142.933 69.8689 143.266 72.5707 143.894L73.476 139.997ZM64.1546 138.933C41.4925 138.933 23.1213 157.305 23.1213 179.967H27.1213C27.1213 159.514 43.7017 142.933 64.1546 142.933V138.933ZM23.1213 179.967C23.1213 202.629 41.4925 221 64.1546 221V217C43.7017 217 27.1213 200.42 27.1213 179.967H23.1213ZM64.1546 221C64.3141 221 64.4734 220.999 64.6325 220.997L64.587 216.998C64.443 216.999 64.2989 217 64.1546 217V221ZM66.1773 220.239L66.1793 220.237L63.0402 217.758L63.0381 217.76L66.1773 220.239ZM201.678 217H64.6077V221H201.678V217ZM199.678 218.997V219H203.678V218.997H199.678Z" fill="url(#paint4_linear_104_16)" mask="url(#path-5-inside-1_104_16)"/>
</g>
</g>
<defs>
<filter id="filter0_f_104_16" x="-44" y="-44" width="241.241" height="241.241" filterUnits="userSpaceOnUse" color-interpolation-filters="sRGB">
<feFlood flood-opacity="0" result="BackgroundImageFix"/>
<feBlend mode="normal" in="SourceGraphic" in2="BackgroundImageFix" result="shape"/>
<feGaussianBlur stdDeviation="22" result="effect1_foregroundBlur_104_16"/>
</filter>
<filter id="filter1_f_104_16" x="-123.278" y="146.777" width="326.945" height="136.023" filterUnits="userSpaceOnUse" color-interpolation-filters="sRGB">
<feFlood flood-opacity="0" result="BackgroundImageFix"/>
<feBlend mode="normal" in="SourceGraphic" in2="BackgroundImageFix" result="shape"/>
<feGaussianBlur stdDeviation="7" result="effect1_foregroundBlur_104_16"/>
</filter>
<filter id="filter2_bd_104_16" x="-45.8787" y="37.8518" width="316.045" height="246.148" filterUnits="userSpaceOnUse" color-interpolation-filters="sRGB">
<feFlood flood-opacity="0" result="BackgroundImageFix"/>
<feGaussianBlur in="BackgroundImageFix" stdDeviation="7"/>
<feComposite in2="SourceAlpha" operator="in" result="effect1_backgroundBlur_104_16"/>
<feColorMatrix in="SourceAlpha" type="matrix" values="0 0 0 0 0 0 0 0 0 0 0 0 0 0 0 0 0 0 127 0" result="hardAlpha"/>
<feOffset dx="-21" dy="15"/>
<feGaussianBlur stdDeviation="25"/>
<feComposite in2="hardAlpha" operator="out"/>
<feColorMatrix type="matrix" values="0 0 0 0 0.113438 0 0 0 0 0.148981 0 0 0 0 0.275 0 0 0 0.25 0"/>
<feBlend mode="normal" in2="effect1_backgroundBlur_104_16" result="effect2_dropShadow_104_16"/>
<feBlend mode="normal" in="SourceGraphic" in2="effect2_dropShadow_104_16" result="shape"/>
</filter>
<linearGradient id="paint0_linear_104_16" x1="76.6203" y1="5.02405" x2="76.6203" y2="153.241" gradientUnits="userSpaceOnUse">
<stop stop-color="#FFE600"/>
<stop offset="1" stop-color="#FF7A00"/>
</linearGradient>
<linearGradient id="paint1_linear_104_16" x1="76.6203" y1="5.02405" x2="76.6203" y2="153.241" gradientUnits="userSpaceOnUse">
<stop stop-color="white"/>
<stop offset="1" stop-color="white" stop-opacity="0"/>
</linearGradient>
<linearGradient id="paint2_linear_104_16" x1="76.6203" y1="5.02431" x2="76.6203" y2="153.241" gradientUnits="userSpaceOnUse">
<stop stop-color="#FFD600"/>
<stop offset="1" stop-color="#FF7A00"/>
</linearGradient>
<linearGradient id="paint3_linear_104_16" x1="143.192" y1="77.2481" x2="143.192" y2="235.514" gradientUnits="userSpaceOnUse">
<stop stop-color="white"/>
<stop offset="1" stop-color="white" stop-opacity="0"/>
</linearGradient>
<linearGradient id="paint4_linear_104_16" x1="133.144" y1="72.8518" x2="133.144" y2="219" gradientUnits="userSpaceOnUse">
<stop stop-color="white"/>
<stop offset="1" stop-color="white" stop-opacity="0"/>
</linearGradient>
<clipPath id="clip0_104_16">
<rect width="241.166" height="219" fill="white"/>
</clipPath>
</defs>
</svg>
