<svg width="174" height="282" viewBox="0 0 174 282" fill="none" xmlns="http://www.w3.org/2000/svg">
<g clip-path="url(#clip0_114_3)">
<g filter="url(#filter0_f_114_3)">
<path d="M63 147C89.5097 147 111 125.51 111 99.0005C111 72.4908 89.5097 51.0005 63 51.0005C36.4903 51.0005 15 72.4908 15 99.0005C15 125.51 36.4903 147 63 147Z" fill="#FA9E42"/>
<path d="M63 157C95.0325 157 121 131.033 121 99.0005C121 66.968 95.0325 41.0005 63 41.0005C30.9675 41.0005 5 66.968 5 99.0005C5 131.033 30.9675 157 63 157Z" stroke="#FA9E42" stroke-width="10" stroke-linecap="round" stroke-dasharray="1 66"/>
<g filter="url(#filter1_f_114_3)">
<path d="M57.6224 89.1821C74.6362 80.1454 84.2605 64.9723 79.1189 55.2921C73.9773 45.6119 56.0169 45.0903 39.0031 54.127C21.9894 63.1638 12.3651 78.3369 17.5067 88.0171C22.6482 97.6973 40.6087 98.2189 57.6224 89.1821Z" fill="#F8E36F"/>
</g>
</g>
<g filter="url(#filter2_f_114_3)">
<g filter="url(#filter3_d_114_3)">
<path d="M80.7538 171.054L80.7538 35.0004C80.7538 25.7178 84.4413 16.8154 91.0051 10.2516C97.5689 3.68786 106.471 0.000366211 115.754 0.000366211C125.036 0.000366211 133.939 3.68786 140.503 10.2516C147.066 16.8154 150.754 25.7178 150.754 35.0004L150.754 173.97C159.83 181.089 166.663 190.672 170.434 201.574C174.205 212.475 174.754 224.232 172.015 235.437C169.277 246.643 163.367 256.821 154.994 264.755C146.62 272.688 136.138 278.04 124.801 280.17C120.686 281.262 116.408 281.6 112.173 281.17C99.4011 280.837 87.0689 276.437 76.9717 268.609C66.8744 260.781 59.5391 249.935 56.0336 237.649C52.5281 225.363 53.0353 212.28 57.4816 200.302C61.9278 188.325 70.0808 178.079 80.7538 171.056V171.054Z" fill="url(#paint0_linear_114_3)"/>
<path d="M54.7301 221.189C54.7301 229.029 56.2429 236.644 59.2265 243.821C62.1084 250.754 66.2414 257.005 71.5105 262.402C74.1059 265.061 76.9647 267.485 80.0077 269.609C83.0769 271.75 86.3621 273.605 89.7719 275.122C96.8537 278.273 104.399 279.971 112.199 280.169L112.237 280.17L112.275 280.174C113.423 280.291 114.593 280.35 115.755 280.35C118.735 280.35 121.692 279.964 124.544 279.203L124.581 279.193L124.618 279.186C131.358 277.929 137.773 275.521 143.687 272.029C149.478 268.61 154.611 264.258 158.943 259.096C163.308 253.896 166.713 248.046 169.064 241.71C171.497 235.153 172.731 228.248 172.731 221.189C172.731 216.564 172.194 211.958 171.135 207.501C170.106 203.169 168.578 198.949 166.593 194.957C164.644 191.036 162.247 187.323 159.471 183.919C156.711 180.536 153.571 177.453 150.137 174.757L149.755 174.457V173.97L149.755 35.0001C149.755 30.4096 148.856 25.957 147.083 21.766C145.371 17.7174 142.919 14.0811 139.796 10.9583C136.673 7.8355 133.037 5.38386 128.989 3.67146C124.798 1.89882 120.345 1 115.755 1C111.164 1 106.711 1.89882 102.52 3.67146C98.4718 5.38386 94.8356 7.8355 91.7128 10.9583C88.5899 14.0811 86.1383 17.7174 84.4259 21.766C82.6532 25.957 81.7544 30.4096 81.7544 35.0001L81.7544 171.055V171.593L81.3047 171.89C73.3012 177.164 66.6301 184.384 62.0127 192.769C59.6654 197.031 57.8547 201.575 56.6308 206.275C55.3696 211.117 54.7301 216.135 54.7301 221.189ZM53.7301 221.189C53.7301 200.231 64.473 181.785 80.7544 171.055L80.7544 35.0001C80.7544 15.6699 96.4243 0 115.755 0C135.085 0 150.755 15.6699 150.755 35.0001L150.755 173.97C164.743 184.955 173.731 202.023 173.731 221.189C173.731 250.544 152.65 274.975 124.802 280.169C121.916 280.94 118.883 281.35 115.755 281.35C114.545 281.35 113.352 281.289 112.174 281.169C79.7553 280.344 53.7301 253.806 53.7301 221.189Z" fill="white" fill-opacity="0.5"/>
</g>
<path d="M114.13 177.581C122.93 177.427 131.578 179.886 138.98 184.648C146.382 189.409 152.206 196.258 155.716 204.33C159.225 212.401 160.263 221.332 158.697 229.992C157.131 238.653 153.031 246.655 146.917 252.986C140.804 259.317 132.95 263.693 124.349 265.561C115.748 267.428 106.786 266.703 98.5975 263.477C90.4087 260.252 83.3602 254.67 78.3435 247.439C73.3268 240.207 70.5672 231.65 70.4136 222.851C70.2076 211.05 74.6977 199.651 82.8962 191.162C91.0946 182.672 102.33 177.787 114.13 177.581Z" fill="white"/>
<path d="M135.977 110.754H93.9768V183.754H135.977V110.754Z" fill="white"/>
</g>
</g>
<defs>
<filter id="filter0_f_114_3" x="-2" y="34.0005" width="130" height="130" filterUnits="userSpaceOnUse" color-interpolation-filters="sRGB">
<feFlood flood-opacity="0" result="BackgroundImageFix"/>
<feBlend mode="normal" in="SourceGraphic" in2="BackgroundImageFix" result="shape"/>
<feGaussianBlur stdDeviation="1" result="effect1_foregroundBlur_114_3"/>
</filter>
<filter id="filter1_f_114_3" x="-3.87769" y="27.6765" width="104.381" height="87.9562" filterUnits="userSpaceOnUse" color-interpolation-filters="sRGB">
<feFlood flood-opacity="0" result="BackgroundImageFix"/>
<feBlend mode="normal" in="SourceGraphic" in2="BackgroundImageFix" result="shape"/>
<feGaussianBlur stdDeviation="10" result="effect1_foregroundBlur_114_3"/>
</filter>
<filter id="filter2_f_114_3" x="51.73" y="-2" width="124.001" height="285.351" filterUnits="userSpaceOnUse" color-interpolation-filters="sRGB">
<feFlood flood-opacity="0" result="BackgroundImageFix"/>
<feBlend mode="normal" in="SourceGraphic" in2="BackgroundImageFix" result="shape"/>
<feGaussianBlur stdDeviation="1" result="effect1_foregroundBlur_114_3"/>
</filter>
<filter id="filter3_d_114_3" x="33.73" y="-28" width="180.001" height="341.351" filterUnits="userSpaceOnUse" color-interpolation-filters="sRGB">
<feFlood flood-opacity="0" result="BackgroundImageFix"/>
<feColorMatrix in="SourceAlpha" type="matrix" values="0 0 0 0 0 0 0 0 0 0 0 0 0 0 0 0 0 0 127 0" result="hardAlpha"/>
<feOffset dx="10" dy="2"/>
<feGaussianBlur stdDeviation="15"/>
<feColorMatrix type="matrix" values="0 0 0 0 0.501961 0 0 0 0 0.501961 0 0 0 0 0.501961 0 0 0 0.302 0"/>
<feBlend mode="normal" in2="BackgroundImageFix" result="effect1_dropShadow_114_3"/>
<feBlend mode="normal" in="SourceGraphic" in2="effect1_dropShadow_114_3" result="shape"/>
</filter>
<linearGradient id="paint0_linear_114_3" x1="158.611" y1="113.947" x2="40.5626" y2="141.912" gradientUnits="userSpaceOnUse">
<stop stop-color="white" stop-opacity="0.596"/>
<stop offset="1" stop-color="#F7F7F7" stop-opacity="0.204"/>
</linearGradient>
<clipPath id="clip0_114_3">
<rect width="173.731" height="281.351" fill="white"/>
</clipPath>
</defs>
</svg>
